<svg xmlns="http://www.w3.org/2000/svg" xmlns:xlink="http://www.w3.org/1999/xlink" width="34" height="34" viewBox="0 0 34 34">
  <defs>
    <clipPath id="clip-path">
      <rect id="Rectangle_144" data-name="Rectangle 144" width="34" height="34" transform="translate(-0.377 -0.474)" fill="#036" stroke="#707070" stroke-width="1"/>
    </clipPath>
  </defs>
  <g id="Mask_Group_15" data-name="Mask Group 15" transform="translate(0.377 0.474)" clip-path="url(#clip-path)">
    <g id="breakfast-hot-drink-coffee-svgrepo-com" transform="translate(0.019 1.672)">

      <path id="Path_35" data-name="Path 35" d="M28.536,57.794H5.29a1.162,1.162,0,1,0,0,2.325H28.536a1.162,1.162,0,0,0,0-2.325Z" transform="translate(-4.128 -26.333)" fill="#036"/>
      <path id="Path_36" data-name="Path 36" d="M31.762,21.8a4.191,4.191,0,0,0-2.325.7v-.7a1.1,1.1,0,0,0-1.162-1.162H7.354A1.1,1.1,0,0,0,6.192,21.8v7.206A11.535,11.535,0,0,0,17.815,40.4a11.647,11.647,0,0,0,10.809-7.09,4.292,4.292,0,0,0,3.138,1.279,4.663,4.663,0,0,0,4.649-4.649V26.452A4.663,4.663,0,0,0,31.762,21.8Zm2.325,8.136a2.325,2.325,0,1,1-4.649,0V26.452a2.325,2.325,0,1,1,4.649,0Z" transform="translate(-5.03 -10.1)" fill="#036"/>
      <path id="Path_37" data-name="Path 37" d="M25.165,11.3a1.652,1.652,0,0,0,.7-.232,1.143,1.143,0,0,0,.349-1.627,5.087,5.087,0,0,1,0-5.7,1.143,1.143,0,0,0-.349-1.627,1.143,1.143,0,0,0-1.627.349,7.585,7.585,0,0,0,0,8.252A1.185,1.185,0,0,0,25.165,11.3Z" transform="translate(-12.38 -1.922)" fill="#036"/>
      <path id="Path_38" data-name="Path 38" d="M16.908,11.362a1.652,1.652,0,0,0,.7-.232A1.143,1.143,0,0,0,17.954,9.5a5.087,5.087,0,0,1,0-5.7,1.143,1.143,0,0,0-.349-1.627,1.4,1.4,0,0,0-1.627.349,7.585,7.585,0,0,0,0,8.252A1.185,1.185,0,0,0,16.908,11.362Z" transform="translate(-8.772 -1.984)" fill="#036"/>
      <path id="Path_39" data-name="Path 39" d="M33.421,11.3a1.652,1.652,0,0,0,.7-.232,1.143,1.143,0,0,0,.349-1.627,5.087,5.087,0,0,1,0-5.7,1.143,1.143,0,0,0-.349-1.627,1.143,1.143,0,0,0-1.627.349,7.585,7.585,0,0,0,0,8.252A1.185,1.185,0,0,0,33.421,11.3Z" transform="translate(-15.987 -1.922)" fill="#036"/>
    </g>
  </g>
</svg>
